<?xml version="1.0" encoding="UTF-8"?>
<!-- Created with Inkscape (http://www.inkscape.org/) -->
<svg width="322.05" height="322.05" version="1.1" xmlns="http://www.w3.org/2000/svg" xmlns:cc="http://creativecommons.org/ns#" xmlns:dc="http://purl.org/dc/elements/1.1/" xmlns:rdf="http://www.w3.org/1999/02/22-rdf-syntax-ns#">
 <title>Tux</title>
 <metadata>
  <rdf:RDF>
   <cc:Work rdf:about="">
    <dc:format>image/svg+xml</dc:format>
    <dc:type rdf:resource="http://purl.org/dc/dcmitype/StillImage"/>
    <dc:title>Tux</dc:title>
    <dc:date>20 June 2012</dc:date>
    <dc:creator>
     <cc:Agent>
      <dc:title>Garrett LeSage</dc:title>
     </cc:Agent>
    </dc:creator>
    <cc:license rdf:resource="http://creativecommons.org/publicdomain/zero/1.0/"/>
    <dc:contributor>
     <cc:Agent>
      <dc:title>Larry Ewing, the creator of the original Tux graphic</dc:title>
     </cc:Agent>
    </dc:contributor>
    <dc:subject>
     <rdf:Bag>
      <rdf:li>tux</rdf:li>
      <rdf:li>Linux</rdf:li>
      <rdf:li>penguin</rdf:li>
      <rdf:li>logo</rdf:li>
     </rdf:Bag>
    </dc:subject>
    <dc:rights>
     <cc:Agent>
      <dc:title>Larry Ewing, Garrett LeSage</dc:title>
     </cc:Agent>
    </dc:rights>
    <dc:source>https://github.com/garrett/Tux</dc:source>
   </cc:Work>
   <cc:License rdf:about="http://creativecommons.org/publicdomain/zero/1.0/">
    <cc:permits rdf:resource="http://creativecommons.org/ns#Reproduction"/>
    <cc:permits rdf:resource="http://creativecommons.org/ns#Distribution"/>
    <cc:permits rdf:resource="http://creativecommons.org/ns#DerivativeWorks"/>
   </cc:License>
  </rdf:RDF>
 </metadata>
 <g transform="translate(157.41 -82.066)">
  <path d="m2.9473 82.069c-7.6457-0.08226-15.383 1.4689-22.115 5.0938-7.1559 3.8529-13.024 10.017-16.625 17.303-3.598 7.2803-4.9271 15.493-5.2422 23.607-0.30954 7.9716 0.31523 15.945 0.76367 23.91 0.46629 8.282 0.74236 16.574 0.83008 24.869 0.41013 2.6444 0.58645 5.3247 0.52343 8-0.0319 1.3536-0.11642 2.7188-0.13086 4.0762-0.0284 0.0717-0.0512 0.14521-0.0801 0.21679-1.0288 2.5546-2.3133 4.9759-3.7188 7.334-2.7479 3.431-5.4924 6.8658-8.2305 10.305-3.0474 3.8274-6.0871 7.6584-9.1582 11.467-3.7682 4.6728-7.6268 9.3807-10.08 14.859-2.108 4.7075-3.1043 9.8219-4.5488 14.773-1.6404 5.6232-3.8682 11.061-6.3691 16.357-2.3093 4.891-4.854 9.6667-7.4023 14.438-1.8541 3.471-3.738 7.02-4.3809 10.902-0.50803 3.0681-0.21271 6.234 0.56836 9.2441 0.03165 0.12197 0.07617 0.23983 0.10938 0.36133-0.47562 0.44045-0.92741 0.89311-1.3242 1.3672-1.4529 1.7358-2.4833 3.5238-3.3906 5.123-0.90631 1.5975-1.6998 3.0192-2.5371 4.1543-0.82893 1.1238-1.721 1.9795-2.5742 2.4629-0.90321 0.51175-2.1842 0.84485-3.6777 0.96289-1.5097 0.11927-3.2637 0.0316-5.25-0.0176-1.9897-0.0492-4.2338-0.0586-6.6426 0.44141-2.4395 0.50641-5.0142 1.5473-7.1328 3.5898-2.2768 2.1951-3.4313 4.9696-3.9531 7.6133-0.51425 2.6053-0.42942 5.0403-0.28711 7.2012 0.31796 4.8281 1.0521 9.3249 1.2676 13.564 0.21466 4.2229-0.10479 8.2696-1.4648 11.658-0.83354 2.0768-2.4145 4.488-3.5957 7.7227-0.59306 1.6241-1.0575 3.4607-1.0898 5.4863-0.0327 2.049 0.38569 4.2354 1.5684 6.252 1.5378 2.6221 3.8749 4.1801 6.084 5.168 2.1679 0.9694 4.1868 1.4104 5.8476 1.8574 3.7395 1.0065 7.5735 2.3836 11.66 3.6055 13.299 3.9764 26.658 5.5148 38.404 10.135 5.7731 2.2707 12.198 5.885 20.057 6.1855 4.9679 0.18997 9.8998-1.094 14.148-3.6211 4.2456-2.5252 7.696-6.22 9.9648-10.576 1.263-2.4249 2.1312-5.0163 2.6152-7.6719 3.8102-0.7244 7.6502-1.2974 11.523-1.3867 1.2-0.0277 2.4082-0.0168 3.6016-0.12109 3.3191 0.36347 6.6612 0.49893 10.008 0.36719 0.41082-0.0162 0.82082-0.0425 1.2305-0.0664 0.86239 0.0968 1.7325 0.14694 2.5976 0.19727 5.8676 0.3413 11.724 0.91139 17.535 1.7891 5.1114 0.77193 10.187 1.7824 15.211 3 0.76741 0.18599 1.5356 0.3852 2.3027 0.57812 0.42406 2.2657 1.1833 4.5599 2.5449 6.7324 2.6238 4.1865 6.6734 6.6331 10.477 8.2695 5.4114 2.3285 11.526 3.5095 17.66 2.5996 5.0363-0.74705 9.6762-2.8465 13.65-5.6875 3.913-2.7972 6.9657-6.0825 9.9316-8.8867 3.4687-3.2796 7.1322-6.278 11.039-8.8008 5.8432-3.7733 12.571-6.6653 19.375-10.092 3.9987-2.0138 8.4682-4.4041 11.953-8.5039 1.5771-1.8554 2.8414-3.9587 3.7383-6.2226a4.2671 4.2671 0 0 0 0.1875-0.59766c0.65668-2.797 0.24061-5.7004-1.1738-8.2012-1.0324-1.8252-2.4095-3.1312-3.709-4.1484-1.2902-1.0099-2.5011-1.7413-3.4805-2.4023-2.0877-1.409-4.1409-3.0927-6.2793-4.8711-2.1402-1.7798-4.0873-3.4418-5.5781-5.2051-1.475-1.7446-2.5138-3.6426-2.8613-5.4356-0.21128-1.0901-0.21387-2.6396-0.38281-4.6074-0.19121-2.227-0.64108-4.5344-1.541-6.791-0.60969-1.5288-1.4821-3.2044-2.9492-4.6836-1.9378-1.9537-4.2191-2.8934-6.1855-3.5059-0.034-0.0106-0.0694-0.0188-0.10352-0.0293 1.3758-2.8455 2.3596-5.9007 2.9414-9 1.3742-7.321 0.74256-14.88-0.53516-22.219-1.7423-10.007-4.6748-19.787-8.4062-29.234-2.7447-6.949-5.9557-13.782-10.443-19.756-4.3915-5.8454-9.9282-10.764-14.23-16.676-2.2653-3.1127-4.1908-6.4979-6.5488-9.5234-0.95592-1.9736-1.9011-3.9524-2.8164-5.9453-2.8408-6.1856-5.418-12.511-8.7832-18.428-0.52344-0.92029-1.0758-1.8264-1.6426-2.7246-0.43191-5.6573-1.0412-11.315-1.3301-16.979-0.57943-11.358 0.12756-22.94-2.8516-33.916-1.4526-5.3518-3.7684-10.46-6.748-15.137-3.4913-5.4799-7.92-10.391-13.182-14.203-8.3953-6.0829-18.789-9.2166-29.156-9.3281zm17.615 38.139c1.1612 0.0467 2.29 0.30643 3.4844 1.0996 3.3153 2.2017 4.9281 4.7209 6.1699 7.793 0.3403 0.84191 0.66588 2.2699 0.26758 2.7109-1.7061-3.4597-4.1382-6.5698-7.3418-8.6973-1.6557-1.0996-3.5096-1.8985-5.4492-2.3164 0.30907-0.64743 1.0972-0.54862 1.6934-0.57813 0.39822-0.0199 0.78871-0.0273 1.1758-0.0117zm-45.289 2.4492c1.3738 0.0237 2.7457 0.35523 3.9805 0.88867 1.4111 0.60966 2.8582 1.5212 4.125 2.4668 0.51406 0.38366 1.0516 0.77856 1.3926 1.2891 1.046 1.5659 1.5623 3.3511 1.8398 5.1973-1.1235-2.3964-2.7832-4.6555-5.0156-6.4863-1.2049-0.98815-2.5537-1.8571-3.9648-2.4668-1.0359-0.44758-2.1753-0.74352-3.3223-0.84375 0.12548-0.0114 0.25464-0.0148 0.38086-0.0215 0.19641-9e-3 0.38773-0.0282 0.58398-0.0215zm40.188 4.4414c0.48995 8e-3 0.97979 0.0462 1.4648 0.11328 1.9402 0.26835 3.8071 0.99989 5.4512 2.0644 3.2882 2.1291 5.6187 5.5438 6.9043 9.2441 1.1835 3.4064 1.5365 7.0655 1.334 10.666-0.15897 2.8258-0.66487 5.6659-1.8535 8.2344-0.56947 1.2306-1.3188 2.3853-2.209 3.4082-1.1304-0.4285-2.2913-0.67855-3.4043-0.94727-1.4799-0.3573-2.9379-0.79985-4.3828-1.2812 0.66784-0.23297 1.3058-0.54877 1.8867-0.95312 1.1231-0.78178 2.029-1.8576 2.6738-3.0645s1.0333-2.5436 1.2109-3.9004c0.31375-2.3966-0.0408-4.8986-1.1484-7.0469-1.1076-2.1483-2.9859-3.9164-5.2539-4.752-0.73674-0.27143-1.5138-0.44605-2.2969-0.48438-0.261-0.0128-0.5241-0.0109-0.78515 8e-3 -1.1152 0.0799-2.2004 0.46092-3.1465 1.0566-0.9461 0.59572-1.7534 1.4029-2.3867 2.3242-1.2666 1.8427-1.8224 4.1036-1.9121 6.3379-0.0673 1.6771 0.11758 3.3754 0.67382 4.959 0.12896 0.36715 0.28199 0.72655 0.45313 1.0762-0.84174-0.45627-1.6839-0.91785-2.5332-1.373-0.91512-0.49048-1.8442-0.97507-2.7988-1.416-0.25387-0.55037-0.49896-1.1074-0.75977-1.6523-0.44594-0.93185-0.97687-1.8291-1.6055-2.6465-0.5801-3.1395-0.55878-6.3705 0.51172-9.3535 1.2154-3.3868 3.7002-6.228 6.666-8.2656 0.92006-0.63211 1.8931-1.1973 2.9336-1.6016 1.3693-0.53202 2.8426-0.77737 4.3125-0.7539zm-40.865 2.3555c1.4261-0.0777 2.8578 0.27637 4.1387 0.9082 1.2809 0.63183 2.4166 1.5326 3.4121 2.5566 2.0555 2.1145 3.5287 4.7576 4.4512 7.5586 0.83958 2.5492 1.2184 5.2299 1.3144 7.9141-0.57495 0.76218-1.1072 1.5583-1.6367 2.3555-0.0709 0.024-0.14422 0.0419-0.21484 0.0664-1.1743 0.40783-2.3183 0.89633-3.4316 1.4473 0.24053-2.0532 0.0104-4.1657-0.60156-6.1465-0.61526-1.9915-1.6343-3.9111-3.2285-5.2539-0.7606-0.64066-1.6516-1.1432-2.6191-1.373-0.48377-0.11493-0.98653-0.15919-1.4824-0.12304-0.4959 0.0361-0.98481 0.15172-1.4375 0.35742-1.0051 0.45671-1.7836 1.3271-2.293 2.3066-0.50931 0.97952-0.77071 2.069-0.95117 3.1582-0.39691 2.3954-0.41138 4.9072 0.41211 7.1914 0.54377 1.5083 1.4414 2.8768 2.5312 4.0527 0.52254 0.56379 1.097 1.0882 1.7383 1.5078-0.56891 0.56544-1.1226 1.1462-1.6445 1.7558-5e-3 6e-3 -0.0108 0.01-0.0156 0.0156-0.95198 0.78775-1.8834 1.5994-2.7969 2.4316-1.1225-1.1975-1.9823-2.6309-2.5957-4.1543-1.2868-3.196-1.5391-6.6984-1.7871-10.135-0.27394-3.7952-0.54477-7.7072 0.66015-11.316 0.60246-1.8046 1.5806-3.5058 2.9707-4.8047 1.3901-1.2989 3.2077-2.1739 5.1074-2.2774zm42.344 11.621c0.16564-6e-3 0.32825 7.7e-4 0.47656 0.0195 1.2829 0.16254 2.5695 1.0359 3.3594 2.2012 0.87014 1.2841 1.7707 3.2507 1.125 4.6973-0.16507 0.36961-0.67897 0.58472-1.0195 0.43945-1.085-0.46308-0.87568-2.5074-1.6484-3.4922-0.40374-0.51454-0.96086-0.84944-1.4942-1.1758-0.54905-0.33614-1.3208-0.26122-1.7344-0.79297-0.25539-0.3284-0.48481-0.88727-0.29883-1.2715 0.21643-0.4473 0.73745-0.60553 1.2344-0.625zm-39.816 0.81836c0.29738 0.0401 0.6033 0.15929 0.84766 0.28906 1.0569 0.56128 1.9142 1.6806 2.2617 2.8613 0.38285 1.301 0.59793 3.1468-0.36915 4.0625-0.2472 0.23407-0.75049 0.22914-1.002 0-0.80109-0.72988-0.0378-2.2614-0.42187-3.2949-0.20066-0.53995-0.58555-0.99153-0.95118-1.4277-0.3764-0.44922-1.0614-0.65023-1.2656-1.207-0.12601-0.34374-0.16384-0.8612 0.10547-1.0996 0.20897-0.18497 0.49754-0.22372 0.79492-0.18359zm17.824 9.0547c1.7667 0.04 3.521 0.29846 5.2168 0.8125 0.45722 0.13859 0.90609 0.29816 1.3516 0.46875 3e-3 1e-3 6e-3 3e-3 0.01 4e-3 0.14864 0.057 0.296 0.11737 0.44336 0.17773 0.0157 6e-3 0.0312 0.0131 0.0469 0.0195 0.23124 0.0947 0.46076 0.19376 0.68945 0.29492 7.8e-4 3.5e-4 1e-3 2e-3 2e-3 2e-3 0.67816 0.2995 1.3471 0.61806 2.0078 0.95703 3e-3 1e-3 5e-3 3e-3 8e-3 4e-3 5e-3 3e-3 0.0104 5e-3 0.0156 8e-3 0.4054 0.20826 0.80982 0.41978 1.2109 0.63477 1.595 0.85489 3.178 1.7328 4.7891 2.5566 6.8e-4 6.3e-4 1e-3 1e-3 2e-3 2e-3 0.21833 0.11163 0.43267 0.23079 0.65234 0.33984 0.71122 0.35309 1.4345 0.68236 2.1621 1 0.6102 0.27154 1.2262 0.52775 1.8457 0.77735 5.7e-4 2.2e-4 1e-3 -2.3e-4 2e-3 0 2.4796 0.99891 5.0229 1.8395 7.6211 2.4668 0.77552 0.18724 1.5568 0.36572 2.3223 0.58789 0.24546 0.0713 0.48948 0.14459 0.73046 0.22852 1e-3 4.7e-4 3e-3 1e-3 4e-3 2e-3 0.27485 0.0937 0.54629 0.19613 0.8125 0.31445 0.89815 0.39919 1.761 0.9734 2.2598 1.8203 0.099 0.16813 0.16783 0.35098 0.23242 0.53516 0.0138 0.0174 0.0314 0.0312 0.0449 0.0488 0.0994 0.1298 0.18606 0.268 0.26953 0.4082 0.0613 0.10623 0.118 0.21577 0.17188 0.32617 4e-3 7e-3 8e-3 0.0142 0.0117 0.0215 0.20862 0.4316 0.3583 0.8929 0.44335 1.3652 2e-3 0.0131 6e-3 0.026 8e-3 0.0391 0.13443 0.7763 0.11737 1.5732 0.0234 2.3555-0.18774 1.5646-0.67826 3.0796-0.87891 4.6426-0.15501 1.2075-0.14611 2.4732-0.67774 3.5684-0.068 0.14016-0.14511 0.27609-0.22851 0.40625-0.0829 0.12987-0.17334 0.25483-0.26953 0.375-0.5901 0.73725-1.4127 1.2945-2.2754 1.7012-1.1446 0.53948-2.3796 0.85429-3.5664 1.293-5.4388 2.0103-9.5656 6.4638-14.502 9.5059-2.5969 1.6004-5.4254 2.812-8.3516 3.6738-3.1575 0.92989-6.473 1.458-9.748 1.1289-2.7888-0.28025-5.5336-1.1988-7.8281-2.8086-3.2494-2.2797-5.4032-5.76-7.8359-8.8965-1.1556-1.49-2.4098-2.9201-3.8125-4.1738-0.40596-0.36284-0.82109-0.71555-1.2539-1.0449 0.21543 0.0755 0.43276 0.17797 0.65039 0.29297 5.4e-4 2.8e-4 1e-3 -2.9e-4 2e-3 0 1e-3 7.1e-4 3e-3 9.5e-4 4e-3 2e-3 2e-3 1e-3 4e-3 3e-3 6e-3 4e-3s4e-3 3e-3 6e-3 4e-3c0.2161 0.11513 0.43201 0.25083 0.64844 0.40039 0.31649 0.21871 0.63282 0.46311 0.94531 0.74414 0.87336 0.78546 1.7537 1.7843 2.8926 2.7109 3.091 2.5151 7.0435 3.4868 10.814 3.5488 3.7509 0.0618 7.3465-0.71372 10.785-1.4883 2.7-0.60817 5.4623-1.2528 8.1719-2.252 4.1643-1.5355 8.0194-3.8538 11.357-6.7578 1.5123-1.3157 2.8189-2.6287 4.2344-3.5176 0.49765-0.31252 1.0594-0.59586 1.6465-0.88281 1e-3 -6.7e-4 3e-3 -1e-3 4e-3 -2e-3 8e-3 -4e-3 0.0169-8e-3 0.0254-0.0117 0.13604-0.0664 0.28328-0.14107 0.42187-0.20898 0.13431-0.0649 0.27704-0.13648 0.41407-0.20313 0.2061-0.10183 0.40255-0.19752 0.61523-0.30469 0.44423-0.22385 0.89556-0.45944 1.3516-0.72851 0.14627-0.0863 0.35124-0.2055 0.58594-0.40039 0.23798-0.19764 0.5017-0.46981 0.69922-0.86524v-2e-3c0.17666-0.35503 0.25106-0.70826 0.26172-1.0449-0.27355-0.0453-0.54757-0.0931-0.82031-0.13867-0.48974-0.0819-0.99158-0.14408-1.4883-0.14844-0.4967-4e-3 -0.98826 0.0491-1.4609 0.20117-0.62019 0.19951-1.1789 0.56026-1.6816 0.97461-0.50275 0.41434-0.95514 0.88343-1.4238 1.3359-0.13563 0.13094-0.27787 0.25462-0.41602 0.38281-1.2683 1.1769-2.6325 2.2478-4.0195 3.2832-3.386 2.5277-6.9284 4.9132-10.859 6.4629-2.5669 1.012-5.265 1.6531-7.9707 2.1934-3.4047 0.6798-6.8666 1.2079-10.336 1.0742-3.4693-0.13368-6.968-0.95872-9.9024-2.8144-1.328-0.83988-2.5221-1.8766-3.8164-2.7676-0.1743-0.11999-0.35768-0.22963-0.53711-0.34375-7e-3 -5e-3 -0.0143-9e-3 -0.0215-0.0137-7e-3 -4e-3 -0.0146-7e-3 -0.0215-0.0117-0.23693-0.14963-0.477-0.29107-0.72266-0.42578-3e-3 -2e-3 -6e-3 -4e-3 -0.01-6e-3 -0.0934-0.0511-0.18854-0.098-0.28321-0.14649-0.20949-0.10722-0.4193-0.21074-0.63476-0.30273-0.16603-0.0709-0.33636-0.12919-0.50586-0.18945-0.17625-0.0627-0.34936-0.13393-0.5293-0.1836-0.0136-4e-3 -0.0274-6e-3 -0.041-0.01-0.017-5e-3 -0.0338-9e-3 -0.0508-0.0137-2e-3 -5.2e-4 -4e-3 -1e-3 -6e-3 -2e-3 -0.30527-0.0797-0.61413-0.14381-0.92968-0.17969-0.34589-0.0393-0.69613-0.049-1.0371-0.11914-0.14976-0.0308-0.29647-0.0803-0.4375-0.14062 0.0151 0.20035 0.0446 0.41073 0.10547 0.63281 7e-3 0.0273 0.0249 0.0546 0.0332 0.082-0.21725-0.21146-0.41521-0.43924-0.57031-0.69922-0.13105-0.21965-0.22342-0.45894-0.29297-0.70507-0.0255-0.0557-0.0553-0.10982-0.0742-0.16797-0.0652-0.19997-0.093-0.41075-0.0937-0.6211-2e-3 -0.42068 0.0992-0.83395 0.18359-1.2461 0.22523-1.1001 0.34572-2.2265 0.70313-3.291 0.34097-1.0156 0.88682-1.9458 1.5195-2.8144 0.21077-0.28945 0.43067-0.57105 0.65625-0.84766 0.31978-0.3921 0.65759-0.76833 1.002-1.1387 0.15547-0.1689 0.31274-0.33533 0.47266-0.5 4e-3 -4e-3 6e-3 -8e-3 0.01-0.0117 0.0191-0.0194 0.0389-0.038 0.0586-0.0566 0.0197-0.0201 0.0408-0.0386 0.0606-0.0586 0.51439-0.52192 1.052-1.0184 1.6094-1.4941 0.73654-0.62873 1.4976-1.2289 2.3008-1.7695 0.78999-0.92875 1.6437-1.8018 2.543-2.625 0.45158-0.41339 0.91832-0.81086 1.3945-1.1953 0.0324-0.0261 0.0632-0.0541 0.0957-0.0801 0.47765-0.3823 0.96854-0.74741 1.4688-1.0996 0.0278-0.0196 0.0542-0.041 0.082-0.0606 0.52604-0.36771 1.0627-0.71948 1.6113-1.0527 0.55311-0.33598 1.1176-0.65347 1.6914-0.95313 1.7e-4 -6.1e-4 -1.7e-4 -1e-3 0-2e-3 0.80971-0.42283 1.639-0.80635 2.4844-1.1523 5.4e-4 -7.3e-4 1e-3 -1e-3 2e-3 -2e-3 0.4864-0.19903 0.97417-0.39397 1.4707-0.56641 2.0924-0.7267 4.2899-1.2119 6.5-1.3809 0.73671-0.0563 1.4748-0.0772 2.2109-0.0606zm3.3418 3.5352c-0.45985 0.0235-0.88985 0.11744-1.2793 0.33399-0.23798 0.13229-0.5009 0.45294-0.41992 0.71289 0.0284 0.0912 0.074 0.16725 0.12695 0.23633 0.0154 0.0201 0.0335 0.0382 0.0508 0.0566 0.0312 0.0334 0.0668 0.0633 0.10352 0.0918 0.10132 0.0789 0.21459 0.14659 0.34765 0.19726 5.7e-4 2.2e-4 1e-3 -2.1e-4 2e-3 0 0.13519 0.0513 0.28657 0.0888 0.43945 0.125 0.16028 0.0379 0.32368 0.0743 0.48633 0.11133 0.0249 6e-3 0.0495 0.0117 0.0742 0.0176 6.1e-4 1.5e-4 1e-3 -1.5e-4 2e-3 0 0.22692 0.0539 0.44588 0.11761 0.63086 0.21289 0.65107 0.33535 1.1761 1.0687 1.9082 1.0898 0.69865 0.0201 1.7958-0.25031 1.8867-0.94336 0.12008-0.91556-1.2139-1.4888-2.0742-1.8242-0.69193-0.26982-1.5187-0.45688-2.2851-0.41797zm-14.34 0.56641c-0.46673 0.063-0.98765 0.4404-1.3359 0.89649-0.17414 0.22804-0.306 0.47523-0.36523 0.71288-0.0592 0.23766-0.0462 0.46615 0.0664 0.6543 0.14133 0.23627 0.56795 0.53715 0.85937 0.37695 0.43925-0.24143 0.80336-1.1088 1.2793-1.4473 0.31779-0.22601 0.24395-1.0534-0.12696-1.1738-0.11914-0.0389-0.24361-0.0376-0.37695-0.0195zm-11.029 4.8066 0.42578 0.28906c-0.0114 9e-3 -0.0219 0.0199-0.0332 0.0293zm56.797 21.441c0.90866 2.0103 1.6745 4.0832 2.5312 6.1172 0.42801 1.0161 0.88612 2.0186 1.3555 3.0156 0.14126 0.30108 0.28176 0.60253 0.42578 0.90234 0.1043 0.21629 0.21277 0.43079 0.31836 0.64649 1.4861 3.0488 3.0794 6.0483 4.5801 9.0918 0.43498 0.88216 0.87819 1.7608 1.2891 2.6543 3.5048 7.6218 5.9149 15.745 7.1367 24.045 4.5885 4.7377 8.4154 10.211 11.287 16.148 8.3411 17.246 8.2678 37.339 5.9961 56.361-0.0607 0.50806-0.13591 1.0183-0.20117 1.5273-1.2276-0.175-2.4685-0.34996-3.6367-0.52148-1.1014-0.16172-2.3898-0.38482-3.8633-0.4375-0.49117-0.0176-1.0029-0.0148-1.5352 0.0137-2.1817 0.11653-4.6673 0.71696-6.7852 2.541-2.2709 1.9558-3.228 4.5455-3.5859 6.875-0.34816 2.2654-0.15717 4.2299-0.0469 5.832 0.63122 9.1673 0.67256 18.331-0.22266 27.354-0.26332 0.25668-0.52325 0.51783-0.78711 0.77344-6.7872 6.5751-13.826 13.074-22.166 17.518-14.601 7.7805-32.632 8.4243-48.023 2.3672-1.3929-2.8792-3.132-5.4913-4.9316-7.8926-1.9454-2.5958-3.9579-4.9684-5.8457-7.291 1.2265-0.0934 2.4382-0.36741 3.5625-0.86133 1.4936-0.65609 2.8275-1.7112 3.7148-3.0801 1.091-1.6831 1.4612-3.7738 1.2422-5.7676s-0.99738-3.8965-2.041-5.6094c-2.5493-4.184-6.5759-7.2105-10.449-10.211-6.9579-5.3898-13.712-11.042-20.248-16.936-1.3202-1.1905-2.6444-2.3762-3.9453-3.5879-0.80687-0.75152-1.6029-1.5212-2.377-2.3106-0.01224-0.0125-0.02488-0.0246-0.03711-0.0371v-2e-3c-1.3083-1.3377-2.532-2.7496-3.4863-4.3535-1.4872-2.4998-2.2897-5.3477-2.834-8.2051-1.493-7.8386-1.1106-16.089 1.5566-23.609 1.0434-2.9421 2.4219-5.7501 3.752-8.5742 2.3054-4.895 4.488-9.8835 7.5195-14.365 0.19626-0.29015 0.40865-0.56965 0.61133-0.85547-1.7752 5.2387-3.6153 10.457-5.8086 15.533-1.3394 3.0999-2.8101 6.1483-3.9414 9.3301-2.5953 7.2994-3.3317 15.36-1.3672 22.854 0.78888 3.0093 2.002 5.9056 3.5879 8.582 0.1006 0.16978 0.21302 0.33201 0.31641 0.5-0.04511-3.4195 0.09896-6.8411 0.43164-10.24 1.129-11.536 4.3409-22.827 9.0195-33.432 3.087-6.9969 6.8128-13.712 11.117-20.033-0.41307-3.9917-0.0317-8.0632 1.1172-11.908 1.8971-6.3489 5.7837-11.887 9.6289-17.283 0.89456-1.2554 1.7921-2.5256 2.6172-3.834 0.29308-0.46477 0.57405-0.93603 0.84375-1.4121 0.0262-0.0462 0.0522-0.0924 0.0781-0.13867 0.22415-0.40068 0.43653-0.80641 0.63867-1.2168 0.0607-0.12278 0.12126-0.24541 0.17969-0.36914 0.16732-0.35535 0.32176-0.71625 0.46875-1.0801 0.0589-0.14531 0.12245-0.28877 0.17774-0.43555 0.18672-0.49696 0.35678-1.0005 0.49804-1.5156 0.94658-3.4516 0.72818-7.0974 0.86524-10.674 2e-3 -0.0482 8e-3 -0.0963 0.01-0.14453 1.0415 0.9596 2.0341 1.9723 2.9668 3.0371 2.4046 2.7452 4.6339 6.1527 8.1582 8.4766 2.5853 1.7047 5.5861 2.5787 8.5684 2.8438 3.5202 0.31289 7.0083-0.20298 10.305-1.0898 3.0214-0.81287 5.9804-1.9621 8.7324-3.5391 5.1748-2.9652 9.2837-7.0571 14.189-8.6192 1.0752-0.34233 2.3556-0.59515 3.6973-1.1641 0.67238-0.28509 1.3567-0.65417 1.9883-1.1641 0.39804-0.32134 0.76448-0.70506 1.0859-1.1387zm29.482 49.74c4.3861 2.3925 8.9659 4.4909 12.965 7.4492 6.9397 5.1338 11.839 12.909 13.234 21.332 1.1093 6.6979 1.3466 12.306-0.7793 20.1-1.3691 5.0193-3.141 9.8922-4.9434 14.756-0.0959 7e-3 -0.19135 0.0207-0.28711 0.0293 0.38131-0.0348 0.76286-0.0617 1.1465-0.0664 1.5315-0.0188 3.0776 0.1805 4.5918 0.4375 2.3318 0.39577 4.6384 0.92668 6.9629 1.3633 0.40002 0.0751 0.80165 0.14765 1.2031 0.22071-2.308-0.13093-4.6215-0.15595-6.9316-0.0703-1.6145 0.0598-3.2274 0.1726-4.8359 0.32422-2.306 0.21738-4.6488 0.52832-6.7422 1.5195-1.6656 0.78868-3.1046 1.9762-4.6758 2.9395-0.3362 0.20612-0.67927 0.40056-1.0274 0.58593 0.81963-1.4888 1.8467-2.8641 3.0996-4.0098 1.569-1.4346 3.4842-2.5074 5.5547-2.9883 3.9612-11.106 7.4558-22.661 5.6719-34.211-1.2663-8.1985-5.3495-16.084-11.883-21.336-3.8685-3.1095-8.4716-5.2516-12.324-8.375zm19.795 63.707c-0.3994 0.0479-0.79686 0.10829-1.1914 0.19727 0.39396-0.0889 0.7924-0.14871 1.1914-0.19727zm-160.77 3.2793h2e-3c0.46193 0.024 0.92099 0.0784 1.375 0.16211 1.816 0.33491 3.5331 1.1185 5.0605 2.1562 3.055 2.0756 5.3202 5.0974 7.4902 8.0859 4.9834 6.863 9.781 13.868 14.129 21.15 3.5268 5.9068 6.7665 12.008 10.842 17.551 0.33307 0.45299 0.68297 0.89207 1.0254 1.3379 2.3926 3.1152 4.9697 6.0894 7.3086 9.2461 0.90063 1.2155 1.7606 2.47 2.5586 3.7598 0.75356 1.218 1.4435 2.4715 2.0488 3.7617 0.0653 0.1397 0.12625 0.28127 0.18945 0.42187 0.21539 0.47748 0.41653 0.96109 0.60547 1.4492 0.0866 0.2245 0.1772 0.44704 0.25781 0.67383 0.0435 0.12187 0.0853 0.24464 0.12696 0.36719 0.15931 0.47012 0.30999 0.94368 0.4414 1.4238 0.13141 0.48014 0.24158 0.96564 0.3418 1.4531 0.0246 0.11964 0.0476 0.23936 0.0703 0.35938 0.0925 0.48857 0.17484 0.9792 0.23633 1.4726 6.5e-4 5e-3 9.5e-4 0.0104 2e-3 0.0156 2e-3 0.0168 2e-3 0.0339 4e-3 0.0508 0.0512 0.42076 0.0845 0.8427 0.11328 1.2656 0.0334 0.4871 0.0471 0.97466 0.0508 1.4629 1e-3 0.16864 0.0119 0.33724 0.01 0.50586-8e-3 0.63153-0.0455 1.2619-0.10352 1.8906-0.0476 0.51361-0.10697 1.0258-0.1875 1.5352-0.0875 0.55347-0.19409 1.1047-0.32031 1.6504v2e-3c-0.12339 0.53325-0.26751 1.0608-0.42773 1.584-0.39731 1.2969-0.9019 2.561-1.5254 3.7676-1.8844 3.6469-4.7753 6.7754-8.291 8.8945-3.5157 2.1192-7.6479 3.2163-11.75 3.0625-6.5217-0.24459-12.48-3.5051-18.543-5.9199-12.353-4.92-25.769-6.4631-38.502-10.295-3.9132-1.1776-7.7608-2.571-11.701-3.6543-1.7507-0.4813-3.5302-0.90418-5.1836-1.6543-1.6534-0.75013-3.1995-1.8662-4.1192-3.4316-0.71082-1.21-1.0116-2.6339-0.99218-4.0371 0.0194-1.4032 0.34839-2.7898 0.82617-4.1094 0.95558-2.639 2.499-5.0267 3.541-7.6328 1.7014-4.2553 2.0068-8.9483 1.7774-13.525-0.22945-4.5771-0.97182-9.1154-1.2852-13.688-0.13992-2.0417-0.19255-4.1082 0.19727-6.1172 0.38981-2.009 1.2544-3.973 2.7285-5.3926 1.359-1.3087 3.1628-2.0854 5.0098-2.4707 1.847-0.38528 3.7505-0.40383 5.6367-0.36133s3.7759 0.14495 5.6562-0.01c1.8804-0.15455 3.7682-0.57743 5.4062-1.5137 1.5573-0.8901 2.8314-2.2137 3.8867-3.6641 1.0554-1.4504 1.9087-3.0354 2.7832-4.6016 0.62192-1.1138 1.2642-2.222 1.9922-3.2676 0.2954-0.42419 0.60135-0.84181 0.93164-1.2402 1.1448-1.3809 2.55-2.5846 4.207-3.2715 0.2848-0.11806 0.57784-0.21453 0.87305-0.30078 0.07332-0.0214 0.14686-0.043 0.2207-0.0625 0.29648-0.0783 0.59525-0.14532 0.89844-0.19336 0.27434-0.0435 0.55253-0.0663 0.83008-0.0859 0.41242-0.0291 0.82663-0.0411 1.2402-0.0195zm138.76 5.7793c1.1333 0.0425 2.264 0.21847 3.3887 0.38281 1.2255 0.17907 2.453 0.35491 3.6797 0.5332 0.0118 2e-3 0.0234 4e-3 0.0352 6e-3 1.1298 0.16445 2.2572 0.34143 3.3789 0.54492 0.0624 0.0114 0.12513 0.0216 0.1875 0.0332-0.91535 2.8713-1.192 5.9451-0.95313 8.957 0.22274 2.8088 0.93224 5.704 2.7812 7.8301 1.494 1.7179 3.6138 2.7895 5.7969 3.4355 3.76 1.1127 7.8573 1.0538 11.584-0.16601 6.1514-2.0599 11.602-6.1592 15.287-11.498 1.1141-1.6141 2.0726-3.3641 2.5879-5.252 0.1577-0.24236 0.30225-0.49316 0.45313-0.74024 0.0783 0.0237 0.1583 0.0418 0.23632 0.0664 1.6164 0.50957 3.2086 1.2384 4.3965 2.4473 0.90281 0.91872 1.5315 2.0751 2.0039 3.2734 0.70381 1.7851 1.0838 3.6877 1.2461 5.5996 0.14373 1.6937 0.12051 3.4069 0.4414 5.0762 0.52804 2.7462 1.9706 5.2505 3.7637 7.3965 1.7931 2.146 3.9358 3.9697 6.0762 5.7695 2.1324 1.7931 4.2779 3.5784 6.5781 5.1504 1.0796 0.73776 2.1938 1.4284 3.2188 2.2402 1.025 0.81188 1.9686 1.7567 2.6094 2.8965 0.86925 1.5461 1.1346 3.4219 0.72851 5.1484h-2e-3c-0.71616 1.8336-1.7337 3.5491-3.002 5.0547-2.7987 3.3225-6.6863 5.5136-10.557 7.4863-6.6012 3.3647-13.443 6.3175-19.648 10.365-4.1579 2.712-7.9954 5.8942-11.584 9.3242-3.069 2.9335-5.9801 6.0671-9.4219 8.5527-3.4727 2.508-7.4864 4.3253-11.723 4.9609-5.1523 0.77313-10.476-0.22724-15.252-2.3086-3.3467-1.4584-6.5663-3.5444-8.4941-6.6445-0.42919-0.69019-0.77463-1.4184-1.0684-2.168-7.5e-4 -2e-3 -9.5e-4 -4e-3 -2e-3 -6e-3 -0.11268-0.28783-0.21331-0.58037-0.3086-0.875-0.0237-0.0735-0.0477-0.1468-0.0703-0.2207-0.089-0.28916-0.17026-0.58056-0.24414-0.875-0.0163-0.0655-0.0313-0.13157-0.0469-0.19726-0.15348-0.64164-0.27692-1.2928-0.36914-1.9512-0.0944-0.67408-0.15632-1.3557-0.19922-2.0371-6e-3 -0.0892-9e-3 -0.17836-0.0137-0.26757-0.0361-0.66401-0.0577-1.3284-0.0586-1.9883-9e-3 -6.4818 1.1933-12.895 2.3242-19.277 0.9397-5.3032 1.8335-10.62 2.4102-15.975 0.10438-0.96926 0.19314-1.939 0.27343-2.9102 0.0704-0.81517 0.1292-1.6311 0.18555-2.4473 0.55108-7.9816 0.45482-16.008-0.11719-23.99-0.11726-1.6364-0.25437-3.2878-0.01-4.9102 0.2445-1.6223 0.91258-3.2405 2.1562-4.3106 1.1488-0.98837 2.6881-1.4241 4.2012-1.5078 0.37828-0.0209 0.75699-0.0218 1.1348-8e-3z" fill="#fff"/>
 </g>
</svg>
